# xmcd CD database file
#
# Track frame offsets:
#	150
#	13202
#	24700
#	37042
#	51570
#	63430
#	78415
#	94082
#	106292
#	121717
#	140057
#	154650
#	173990
#	189100
#	206340
#	225177
#
# Disc length: 3428 seconds
#
# Revision: 0
# Processed by: cddbd v1.5.1PL2 Copyright (c) Steve Scherf et al.
# Submitted via: CDex 1.51
#
DISCID=cf0d6210
DTITLE=Rey Perez - Rey Perez Y Los Dementes - Pura Salsa
DYEAR=1900
DGENRE=Salsa
TTITLE0=Vete De Mi Vida
TTITLE1=La Perrita De Floro
TTITLE2=Mi Mujer No Esta En El Guiro
TTITLE3=Mi Salsa Llego
TTITLE4=Piña Y Melon
TTITLE5=A Comer Llaman
TTITLE6=Los Dementes
TTITLE7=Koco
TTITLE8=Catalina
TTITLE9=Recuento
TTITLE10=Floro
TTITLE11=Carnaval De Cueros
TTITLE12=El Guaguanco Y La Salsa
TTITLE13=La Cenicienta
TTITLE14=Juan El Navajo
TTITLE15=Descargando
EXTD=
EXTT0=
EXTT1=
EXTT2=
EXTT3=
EXTT4=
EXTT5=
EXTT6=
EXTT7=
EXTT8=
EXTT9=
EXTT10=
EXTT11=
EXTT12=
EXTT13=
EXTT14=
EXTT15=
PLAYORDER=
